<mxfile host="app.diagrams.net" agent="Mozilla/5.0 (Windows NT 10.0; Win64; x64) AppleWebKit/537.36 (KHTML, like Gecko) Chrome/138.0.0.0 Safari/537.36" version="28.0.7">
  <diagram id="aR2ks7epzfJ-9q5VTVvk" name="Page-1">
    <mxGraphModel dx="1042" dy="562" grid="1" gridSize="10" guides="1" tooltips="1" connect="1" arrows="1" fold="1" page="1" pageScale="1" pageWidth="827" pageHeight="1169" math="0" shadow="0">
      <root>
        <mxCell id="0" />
        <mxCell id="1" parent="0" />
        <mxCell id="Z-m3wczjMYu2acBiXMr3-3" value="" style="edgeStyle=orthogonalEdgeStyle;rounded=0;orthogonalLoop=1;jettySize=auto;html=1;labelBackgroundColor=none;fontColor=default;strokeColor=#182E3E;" edge="1" parent="1" source="Z-m3wczjMYu2acBiXMr3-1" target="Z-m3wczjMYu2acBiXMr3-2">
          <mxGeometry relative="1" as="geometry" />
        </mxCell>
        <mxCell id="Z-m3wczjMYu2acBiXMr3-1" value="&lt;h3&gt;Start&lt;/h3&gt;" style="ellipse;whiteSpace=wrap;html=1;labelBackgroundColor=none;fillColor=#56517E;strokeColor=#EEEEEE;fontColor=#FFFFFF;" vertex="1" parent="1">
          <mxGeometry x="320" y="30" width="160" height="50" as="geometry" />
        </mxCell>
        <mxCell id="Z-m3wczjMYu2acBiXMr3-5" value="" style="edgeStyle=orthogonalEdgeStyle;rounded=0;orthogonalLoop=1;jettySize=auto;html=1;labelBackgroundColor=none;fontColor=default;strokeColor=#182E3E;" edge="1" parent="1" source="Z-m3wczjMYu2acBiXMr3-2" target="Z-m3wczjMYu2acBiXMr3-4">
          <mxGeometry relative="1" as="geometry" />
        </mxCell>
        <mxCell id="Z-m3wczjMYu2acBiXMr3-2" value="&lt;h3&gt;New User?&lt;/h3&gt;" style="rhombus;whiteSpace=wrap;html=1;labelBackgroundColor=none;fillColor=#56517E;strokeColor=#EEEEEE;fontColor=#FFFFFF;" vertex="1" parent="1">
          <mxGeometry x="330" y="145" width="140" height="55" as="geometry" />
        </mxCell>
        <mxCell id="Z-m3wczjMYu2acBiXMr3-7" value="" style="edgeStyle=orthogonalEdgeStyle;rounded=0;orthogonalLoop=1;jettySize=auto;html=1;labelBackgroundColor=none;fontColor=default;strokeColor=#182E3E;" edge="1" parent="1" source="Z-m3wczjMYu2acBiXMr3-4" target="Z-m3wczjMYu2acBiXMr3-6">
          <mxGeometry relative="1" as="geometry" />
        </mxCell>
        <mxCell id="Z-m3wczjMYu2acBiXMr3-4" value="&lt;h3&gt;Recognize the face&lt;/h3&gt;" style="shape=parallelogram;perimeter=parallelogramPerimeter;whiteSpace=wrap;html=1;fixedSize=1;labelBackgroundColor=none;fillColor=#56517E;strokeColor=#EEEEEE;fontColor=#FFFFFF;" vertex="1" parent="1">
          <mxGeometry x="295" y="280" width="210" height="60" as="geometry" />
        </mxCell>
        <mxCell id="Z-m3wczjMYu2acBiXMr3-9" value="" style="edgeStyle=orthogonalEdgeStyle;rounded=0;orthogonalLoop=1;jettySize=auto;html=1;labelBackgroundColor=none;fontColor=default;strokeColor=#182E3E;" edge="1" parent="1" source="Z-m3wczjMYu2acBiXMr3-6" target="Z-m3wczjMYu2acBiXMr3-8">
          <mxGeometry relative="1" as="geometry" />
        </mxCell>
        <mxCell id="Z-m3wczjMYu2acBiXMr3-6" value="&lt;h3&gt;Face Recognizes&lt;/h3&gt;" style="rhombus;whiteSpace=wrap;html=1;labelBackgroundColor=none;fillColor=#56517E;strokeColor=#EEEEEE;fontColor=#FFFFFF;" vertex="1" parent="1">
          <mxGeometry x="335" y="400" width="130" height="70" as="geometry" />
        </mxCell>
        <mxCell id="Z-m3wczjMYu2acBiXMr3-11" value="" style="edgeStyle=orthogonalEdgeStyle;rounded=0;orthogonalLoop=1;jettySize=auto;html=1;entryX=0.5;entryY=0;entryDx=0;entryDy=0;labelBackgroundColor=none;fontColor=default;strokeColor=#182E3E;" edge="1" parent="1" source="Z-m3wczjMYu2acBiXMr3-8" target="Z-m3wczjMYu2acBiXMr3-12">
          <mxGeometry relative="1" as="geometry">
            <mxPoint x="400" y="685" as="targetPoint" />
          </mxGeometry>
        </mxCell>
        <mxCell id="Z-m3wczjMYu2acBiXMr3-8" value="&lt;h3&gt;Stored in csv file with Registration number &amp;amp; data, time of entry&lt;/h3&gt;" style="shape=parallelogram;perimeter=parallelogramPerimeter;whiteSpace=wrap;html=1;fixedSize=1;labelBackgroundColor=none;fillColor=#56517E;strokeColor=#EEEEEE;fontColor=#FFFFFF;" vertex="1" parent="1">
          <mxGeometry x="290" y="555" width="220" height="60" as="geometry" />
        </mxCell>
        <mxCell id="Z-m3wczjMYu2acBiXMr3-12" value="&lt;h3&gt;End&lt;/h3&gt;" style="ellipse;whiteSpace=wrap;html=1;labelBackgroundColor=none;fillColor=#56517E;strokeColor=#EEEEEE;fontColor=#FFFFFF;" vertex="1" parent="1">
          <mxGeometry x="320" y="680" width="160" height="40" as="geometry" />
        </mxCell>
        <mxCell id="Z-m3wczjMYu2acBiXMr3-18" value="" style="edgeStyle=orthogonalEdgeStyle;rounded=0;orthogonalLoop=1;jettySize=auto;html=1;labelBackgroundColor=none;fontColor=default;strokeColor=#182E3E;" edge="1" parent="1" source="Z-m3wczjMYu2acBiXMr3-15" target="Z-m3wczjMYu2acBiXMr3-17">
          <mxGeometry relative="1" as="geometry" />
        </mxCell>
        <mxCell id="Z-m3wczjMYu2acBiXMr3-15" value="&lt;h3&gt;Give your photograpghy&amp;nbsp;&lt;/h3&gt;" style="whiteSpace=wrap;html=1;labelBackgroundColor=none;fillColor=#56517E;strokeColor=#EEEEEE;fontColor=#FFFFFF;" vertex="1" parent="1">
          <mxGeometry x="570" y="142.5" width="180" height="60" as="geometry" />
        </mxCell>
        <mxCell id="Z-m3wczjMYu2acBiXMr3-17" value="&lt;h3&gt;Store the face data in floder on the name&lt;/h3&gt;" style="whiteSpace=wrap;html=1;labelBackgroundColor=none;fillColor=#56517E;strokeColor=#EEEEEE;fontColor=#FFFFFF;" vertex="1" parent="1">
          <mxGeometry x="570" y="280" width="180" height="60" as="geometry" />
        </mxCell>
        <mxCell id="Z-m3wczjMYu2acBiXMr3-25" value="" style="endArrow=none;html=1;rounded=0;exitX=1;exitY=0.5;exitDx=0;exitDy=0;labelBackgroundColor=none;fontColor=default;strokeColor=#182E3E;" edge="1" parent="1" source="Z-m3wczjMYu2acBiXMr3-6">
          <mxGeometry width="50" height="50" relative="1" as="geometry">
            <mxPoint x="380" y="240" as="sourcePoint" />
            <mxPoint x="800" y="440" as="targetPoint" />
          </mxGeometry>
        </mxCell>
        <mxCell id="Z-m3wczjMYu2acBiXMr3-26" value="" style="endArrow=none;html=1;rounded=0;labelBackgroundColor=none;fontColor=default;strokeColor=#182E3E;" edge="1" parent="1">
          <mxGeometry width="50" height="50" relative="1" as="geometry">
            <mxPoint x="800" y="440" as="sourcePoint" />
            <mxPoint x="800" y="80" as="targetPoint" />
          </mxGeometry>
        </mxCell>
        <mxCell id="Z-m3wczjMYu2acBiXMr3-27" value="" style="endArrow=none;html=1;rounded=0;labelBackgroundColor=none;fontColor=default;strokeColor=#182E3E;" edge="1" parent="1">
          <mxGeometry width="50" height="50" relative="1" as="geometry">
            <mxPoint x="660" y="80" as="sourcePoint" />
            <mxPoint x="800" y="80" as="targetPoint" />
          </mxGeometry>
        </mxCell>
        <mxCell id="Z-m3wczjMYu2acBiXMr3-28" value="" style="endArrow=classic;html=1;rounded=0;entryX=0.5;entryY=0;entryDx=0;entryDy=0;labelBackgroundColor=none;fontColor=default;strokeColor=#182E3E;" edge="1" parent="1" target="Z-m3wczjMYu2acBiXMr3-15">
          <mxGeometry width="50" height="50" relative="1" as="geometry">
            <mxPoint x="660" y="80" as="sourcePoint" />
            <mxPoint x="430" y="190" as="targetPoint" />
          </mxGeometry>
        </mxCell>
        <mxCell id="Z-m3wczjMYu2acBiXMr3-29" style="edgeStyle=orthogonalEdgeStyle;rounded=0;orthogonalLoop=1;jettySize=auto;html=1;exitX=0.5;exitY=1;exitDx=0;exitDy=0;labelBackgroundColor=none;fontColor=default;strokeColor=#182E3E;" edge="1" parent="1" source="Z-m3wczjMYu2acBiXMr3-6" target="Z-m3wczjMYu2acBiXMr3-6">
          <mxGeometry relative="1" as="geometry" />
        </mxCell>
        <mxCell id="Z-m3wczjMYu2acBiXMr3-31" value="&lt;h3&gt;No&lt;/h3&gt;" style="text;html=1;align=center;verticalAlign=middle;resizable=0;points=[];autosize=1;strokeColor=none;fillColor=none;labelBackgroundColor=none;fontColor=#FFFFFF;" vertex="1" parent="1">
          <mxGeometry x="560" y="383" width="40" height="60" as="geometry" />
        </mxCell>
        <mxCell id="Z-m3wczjMYu2acBiXMr3-32" value="&lt;h3&gt;Yes&lt;/h3&gt;" style="text;html=1;align=center;verticalAlign=middle;resizable=0;points=[];autosize=1;strokeColor=none;fillColor=none;labelBackgroundColor=none;fontColor=#FFFFFF;" vertex="1" parent="1">
          <mxGeometry x="495" y="133" width="50" height="60" as="geometry" />
        </mxCell>
        <mxCell id="Z-m3wczjMYu2acBiXMr3-34" value="&lt;h3&gt;No&lt;/h3&gt;" style="text;html=1;align=center;verticalAlign=middle;resizable=0;points=[];autosize=1;strokeColor=none;fillColor=none;labelBackgroundColor=none;fontColor=#FFFFFF;" vertex="1" parent="1">
          <mxGeometry x="320" y="203" width="40" height="60" as="geometry" />
        </mxCell>
        <mxCell id="Z-m3wczjMYu2acBiXMr3-35" value="&lt;h3&gt;Yes&lt;/h3&gt;" style="text;html=1;align=center;verticalAlign=middle;resizable=0;points=[];autosize=1;strokeColor=none;fillColor=none;labelBackgroundColor=none;fontColor=#FFFFFF;" vertex="1" parent="1">
          <mxGeometry x="305" y="353" width="50" height="60" as="geometry" />
        </mxCell>
        <mxCell id="Z-m3wczjMYu2acBiXMr3-39" value="" style="endArrow=classic;html=1;rounded=0;exitX=0;exitY=0.5;exitDx=0;exitDy=0;entryX=1;entryY=0.5;entryDx=0;entryDy=0;labelBackgroundColor=none;fontColor=default;strokeColor=#182E3E;" edge="1" parent="1" source="Z-m3wczjMYu2acBiXMr3-17" target="Z-m3wczjMYu2acBiXMr3-4">
          <mxGeometry width="50" height="50" relative="1" as="geometry">
            <mxPoint x="390" y="280" as="sourcePoint" />
            <mxPoint x="440" y="230" as="targetPoint" />
          </mxGeometry>
        </mxCell>
        <mxCell id="Z-m3wczjMYu2acBiXMr3-40" value="" style="endArrow=none;html=1;rounded=0;entryX=0;entryY=0.5;entryDx=0;entryDy=0;labelBackgroundColor=none;fontColor=default;strokeColor=#182E3E;" edge="1" parent="1" source="Z-m3wczjMYu2acBiXMr3-2" target="Z-m3wczjMYu2acBiXMr3-15">
          <mxGeometry width="50" height="50" relative="1" as="geometry">
            <mxPoint x="390" y="280" as="sourcePoint" />
            <mxPoint x="440" y="230" as="targetPoint" />
          </mxGeometry>
        </mxCell>
      </root>
    </mxGraphModel>
  </diagram>
</mxfile>
